<svg width="680" height="680" viewBox="0 0 680 680" fill="none" xmlns="http://www.w3.org/2000/svg">
<path opacity="0.5" fill-rule="evenodd" clip-rule="evenodd" d="M185.164 498.486C210.349 589.64 256.581 656.284 311.504 674.809C149.867 661.234 20.781 533.239 5.5125 372.09C24.7297 427.33 92.664 473.676 185.164 498.486ZM189.646 499.666C197.854 528.836 208.234 555.4 220.357 578.561C252.102 639.208 295.191 675.532 341.755 675.996C342.993 675.989 344.23 675.976 345.465 675.956C391.298 674.535 433.644 638.379 464.955 578.561C477.289 554.999 487.818 527.915 496.091 498.147C449.346 510.814 396.269 517.969 340 517.969C286.02 517.969 234.978 511.384 189.646 499.666ZM497.314 493.666C450.408 506.614 396.881 513.969 340 513.969C285.422 513.969 233.932 507.198 188.415 495.211C175.824 448.81 168.688 396.032 168.688 340C168.688 283.968 175.824 231.19 188.415 184.789C233.932 172.802 285.422 166.031 340 166.031C396.881 166.031 450.408 173.386 497.314 186.334C509.645 232.36 516.625 284.589 516.625 340C516.625 395.411 509.645 447.64 497.314 493.666ZM500.581 496.908C475.797 587.765 430.161 654.555 375.797 674.116C534.006 657.36 659.45 530.805 674.487 372.09C655.67 426.18 590.144 471.742 500.581 496.908ZM676 340C676 386.909 639.599 430.349 578.561 462.299C555.963 474.128 530.125 484.297 501.786 492.408C513.84 446.566 520.625 394.797 520.625 340C520.625 285.203 513.84 233.434 501.786 187.592C530.125 195.703 555.963 205.872 578.561 217.701C639.599 249.651 676 293.091 676 340ZM680 340C680 525.915 530.78 676.979 345.574 679.955C344.603 679.985 343.631 680 342.656 680C342.352 680 342.048 679.999 341.744 679.996C341.163 679.999 340.582 680 340 680C152.238 680 0.0244137 527.801 2.93649e-06 340.045C9.78851e-07 340.03 0 340.015 0 340C0 339.985 9.78355e-07 339.97 2.935e-06 339.955C0.0244075 152.199 152.238 0 340 0C340.582 0 341.163 0.00146 341.744 0.00437655C342.048 0.00146 342.352 0 342.656 0C343.631 0 344.603 0.014959 345.574 0.0447633C530.78 3.02151 680 154.085 680 340ZM4 339.956C4 339.971 4 339.985 4 340C4 340.015 4 340.029 4 340.044C4.02275 386.937 40.4198 430.359 101.439 462.299C125.553 474.921 153.357 485.654 183.951 494.013C171.632 447.776 164.688 395.437 164.688 340C164.688 284.563 171.632 232.224 183.951 185.987C153.357 194.346 125.553 205.078 101.439 217.701C40.4198 249.641 4.02275 293.063 4 339.956ZM185.164 181.514C92.664 206.324 24.7297 252.67 5.5125 307.91C20.781 146.761 149.867 18.7658 311.504 5.19137C256.581 23.7163 210.349 90.36 185.164 181.514ZM189.646 180.334C234.978 168.616 286.02 162.031 340 162.031C396.269 162.031 449.346 169.186 496.091 181.853C487.818 152.085 477.289 125.001 464.955 101.439C433.644 41.621 391.298 5.46532 345.465 4.04355C344.23 4.02385 342.993 4.01082 341.755 4.00449C295.191 4.46772 252.102 40.792 220.357 101.439C208.234 124.6 197.854 151.164 189.646 180.334ZM500.581 183.092C475.797 92.235 430.161 25.445 375.797 5.88443C534.006 22.6396 659.45 149.195 674.487 307.91C655.67 253.82 590.144 208.258 500.581 183.092Z" fill="url(#paint0_linear_25769_42847)"/>
<defs>
<linearGradient id="paint0_linear_25769_42847" x1="-24.4133" y1="340" x2="680" y2="340" gradientUnits="userSpaceOnUse">
<stop stop-color="#F55B18"/>
<stop offset="0.520238" stop-color="#6BBAF3"/>
<stop offset="1" stop-color="#282EC4"/>
</linearGradient>
</defs>
</svg>
